<?xml version="1.0" encoding="UTF-8" standalone="no"?>
<!DOCTYPE svg PUBLIC "-//W3C//DTD SVG 1.1//EN" "http://www.w3.org/Graphics/SVG/1.1/DTD/svg11.dtd">
<svg width="100%" height="100%" viewBox="0 0 110 135" version="1.1" xmlns="http://www.w3.org/2000/svg" xmlns:xlink="http://www.w3.org/1999/xlink" xml:space="preserve" xmlns:serif="http://www.serif.com/" style="fill-rule:evenodd;clip-rule:evenodd;stroke-linejoin:round;stroke-miterlimit:2;" opacity="80%">
    <g transform="matrix(1,0,0,1,5,10)">
        <path d="M82.16,37.922L55.09,37.922L60.359,23C60.68,22.078 60.539,21.059 59.981,20.269C59.422,19.48 58.5,19 57.531,19L45.84,19C44.899,19 44.012,19.441 43.442,20.199L30.141,37.922L17.84,37.922C16.18,37.922 14.84,39.262 14.84,40.922L14.84,78C14.84,79.66 16.18,81 17.84,81L67.024,81C68.243,81 69.344,80.262 69.805,79.129L84.934,42.051C85.313,41.121 85.204,40.071 84.645,39.243C84.09,38.422 83.161,37.922 82.161,37.922L82.16,37.922ZM20.84,75L20.84,43.922L28.609,43.922L28.609,75L20.84,75ZM65.012,75L34.602,75L34.602,41.969L47.34,25L53.289,25L48.02,39.922C47.699,40.844 47.84,41.863 48.399,42.652C48.957,43.442 49.879,43.922 50.848,43.922L77.7,43.922L65.012,75Z" style="fill-rule:nonzero;"/>
    </g>
</svg>
