<svg xmlns:inkscape="http://www.inkscape.org/namespaces/inkscape" xmlns:sodipodi="http://sodipodi.sourceforge.net/DTD/sodipodi-0.dtd" xmlns="http://www.w3.org/2000/svg" xmlns:svg="http://www.w3.org/2000/svg" viewBox="0 0 8.46667 10.583324375" version="1.1" x="0px" y="0px"><g transform="translate(-77.56751,-160.62684)"><path style="color:#000000;" d="m 82.388672,162.86133 a 0.52916503,0.52916503 0 0 0 -0.529297,0.52929 0.52916503,0.52916503 0 0 0 0.529297,0.5293 c 0.850557,0 1.529299,0.67679 1.529297,1.52735 2e-6,0.85056 -0.67874,1.5293 -1.529297,1.52929 a 0.52916503,0.52916503 0 0 0 -0.529297,0.5293 0.52916503,0.52916503 0 0 0 0.529297,0.5293 c 1.422524,0 2.587894,-1.16537 2.58789,-2.58789 4e-6,-1.42253 -1.165366,-2.58595 -2.58789,-2.58594 z" fill="#FFFFFF" stroke-linecap="round" stroke-linejoin="round"/><path style="color:#000000;" d="m 79.623047,166.97656 a 0.52916503,0.52916503 0 0 0 -0.529297,0.5293 0.52916503,0.52916503 0 0 0 0.529297,0.5293 h 2.765625 a 0.52916503,0.52916503 0 0 0 0.529297,-0.5293 0.52916503,0.52916503 0 0 0 -0.529297,-0.5293 z" fill="#FFFFFF" stroke-linecap="round" stroke-linejoin="round"/><path style="color:#000000;" d="m 79.154297,162.86133 a 0.52916503,0.52916503 0 0 0 -0.529297,0.52929 0.52916503,0.52916503 0 0 0 0.529297,0.5293 h 3.234375 a 0.52916503,0.52916503 0 0 0 0.529297,-0.5293 0.52916503,0.52916503 0 0 0 -0.529297,-0.52929 z" fill="#FFFFFF" stroke-linecap="round" stroke-linejoin="round"/><path style="color:#000000;" d="m 80.533203,161.72461 a 0.52921795,0.52921795 0 0 0 -0.576172,0.11523 l -1.175781,1.17578 a 0.52921795,0.52921795 0 0 0 0,0.74805 l 1.175781,1.17578 a 0.52921795,0.52921795 0 0 0 0.902344,-0.37304 v -2.35157 a 0.52921795,0.52921795 0 0 0 -0.326172,-0.49023 z" fill="#FFFFFF" stroke-linecap="round" stroke-linejoin="round"/></g><text x="0" y="23.4666595" fill="#FFFFFF" font-size="5px" font-weight="bold" font-family="'Helvetica Neue', Helvetica, Arial-Unicode, Arial, Sans-serif">Created by Meko</text><text x="0" y="28.4666595" fill="#FFFFFF" font-size="5px" font-weight="bold" font-family="'Helvetica Neue', Helvetica, Arial-Unicode, Arial, Sans-serif">from the Noun Project</text></svg>